<?xml version="1.0" ?>
<svg xmlns="http://www.w3.org/2000/svg" xmlns:cc="http://creativecommons.org/ns#" xmlns:dc="http://purl.org/dc/elements/1.1/" xmlns:inkscape="http://www.inkscape.org/namespaces/inkscape" xmlns:rdf="http://www.w3.org/1999/02/22-rdf-syntax-ns#" width="124.19042mm" height="124.19042mm" viewBox="0 0 124.19042 124.19042" version="1.1" id="svg151">
	<g inkscape:groupmode="layer" id="g2438" inkscape:label="eyebrows_001" style=";opacity:1" class="eyebrows">
		<path id="path2434" d="m 49.740455,40.63106 c -4.590465,1.326054 -6.815111,2.590772 -7.170893,3.781331 0.05501,0.188173 0.411948,0.672037 0.579181,0.823561 0.861404,-0.828607 3.021231,-2.286641 6.888941,-3.404695 3.94338,-1.139113 6.376122,-0.03553 7.474809,0.418198 0.08349,-0.246195 0.212301,-0.860506 0.152966,-1.071392 -1.152551,-0.719764 -3.334732,-1.873002 -7.925004,-0.547003 z" class="hair"/>
		<path id="path2436" d="m 73.547023,46.051562 c 4.778158,-4.8e-5 7.456554,0.740173 8.12878,1.785224 -6.25e-4,0.196048 -0.209252,0.759966 -0.327863,0.951951 -1.057531,-0.556987 -3.727306,-1.500924 -7.753374,-1.501635 -4.10461,5.7e-5 -6.423019,0.696293 -7.352619,1.437126 -0.148541,-0.213351 -0.442781,-0.767781 -0.444305,-0.98685 0.907515,-1.011361 2.971425,-1.685768 7.749381,-1.685816 z" class="hair"/>
	</g>
	<metadata>
		<rdf:RDF>
			<cc:Work>
				<dc:creator>
					<cc:Agent>
						<dc:title>yurg</dc:title>
					</cc:Agent>
				</dc:creator>
				<dc:source>https://github.com/profile-generators/avatar-parts</dc:source>
				<dc:subject>
					<rdf:Bag>
						<rdf:li>wink</rdf:li>
					</rdf:Bag>
				</dc:subject>
			</cc:Work>
			<cc:License rdf:about="http://creativecommons.org/licenses/by/4.0/">
				<cc:permits rdf:resource="http://creativecommons.org/ns#Reproduction"/>
				<cc:permits rdf:resource="http://creativecommons.org/ns#Distribution"/>
				<cc:requires rdf:resource="http://creativecommons.org/ns#Notice"/>
				<cc:requires rdf:resource="http://creativecommons.org/ns#Attribution"/>
				<cc:permits rdf:resource="http://creativecommons.org/ns#DerivativeWorks"/>
			</cc:License>
		</rdf:RDF>
	</metadata>
</svg>