<?xml version="1.0" ?>
<svg height="124.19042mm" id="svg151" version="1.1" viewBox="0 0 124.19042 124.19042" width="124.19042mm" xmlns="http://www.w3.org/2000/svg" xmlns:cc="http://creativecommons.org/ns#" xmlns:dc="http://purl.org/dc/elements/1.1/" xmlns:inkscape="http://www.inkscape.org/namespaces/inkscape" xmlns:rdf="http://www.w3.org/1999/02/22-rdf-syntax-ns#">
	<g class="ears" id="layer20" inkscape:groupmode="layer" inkscape:label="ears_0000" style="display:inline;opacity:1">
		<path class="flesh_fill" d="m 92.972088,52.96064 c -0.131994,2.259597 -1.903386,5.923678 -3.809761,7.555194 -0.82249,0.703905 -2.633806,4.372672 -3.164827,3.671372 0,0 0.857118,-5.778953 0.857118,-10.419866 0,-2.137596 -0.940407,-4.739533 -1.099934,-6.377556 -0.177315,-1.820671 2.745328,-2.182301 3.671288,-2.160012 2.792737,0.06723 3.848629,2.552154 3.546116,7.730868 z" id="path2984" style="stroke-width:0.265"/>
		<path class="flesh2_fill" d="m 91.544756,52.405129 c 0,3.04444 -3.105721,6.98269 -4.51523,6.731555 -0.63146,-0.112509 1.341287,-2.278743 1.786405,-3.871973 0.552334,-1.976991 -0.962725,-2.432804 -0.920312,-4.428244 0.04357,-2.05006 0.750905,-2.984924 1.883288,-2.984924 1.132383,0 1.765849,1.509146 1.765849,4.553586 z" id="path5100" style="stroke:none;stroke-width:0.264999"/>
		<path class="flesh_fill" d="m 31.009259,52.96064 c 0.131994,2.259597 1.903386,5.923678 3.809761,7.555194 0.82249,0.703905 2.633806,4.372672 3.164827,3.671372 0,0 -0.857118,-5.778953 -0.857118,-10.419866 0,-2.137596 0.940407,-4.739533 1.099934,-6.377556 0.177315,-1.820671 -2.745328,-2.182301 -3.671288,-2.160012 -2.792737,0.06723 -3.848629,2.552154 -3.546116,7.730868 z" id="path8601" style="stroke-width:0.265"/>
		<path class="flesh2_fill" d="m 32.839941,52.405129 c 0,3.04444 3.105721,6.98269 4.51523,6.731555 0.63146,-0.112509 -1.341287,-2.278743 -1.786405,-3.871973 -0.552334,-1.976991 0.962725,-2.432804 0.920312,-4.428244 -0.04357,-2.05006 -0.750905,-2.984924 -1.883288,-2.984924 -1.132383,0 -1.765849,1.509146 -1.765849,4.553586 z" id="path8603" style="stroke:none;stroke-width:0.264999"/>
	</g>
	<metadata>
		<rdf:RDF>
			<cc:Work>
				<dc:creator>
					<cc:Agent>
						<dc:title>Xavier 'crashoz' Launey</dc:title>
					</cc:Agent>
				</dc:creator>
				<dc:source>https://github.com/profile-generators/avatar-parts</dc:source>
				<dc:subject>
					<rdf:Bag>
						<rdf:li>template</rdf:li>
						<rdf:li>man</rdf:li>
					</rdf:Bag>
				</dc:subject>
			</cc:Work>
			<cc:License rdf:about="http://creativecommons.org/licenses/by/4.0/">
				<cc:permits rdf:resource="http://creativecommons.org/ns#Reproduction"/>
				<cc:permits rdf:resource="http://creativecommons.org/ns#Distribution"/>
				<cc:requires rdf:resource="http://creativecommons.org/ns#Notice"/>
				<cc:requires rdf:resource="http://creativecommons.org/ns#Attribution"/>
				<cc:permits rdf:resource="http://creativecommons.org/ns#DerivativeWorks"/>
			</cc:License>
		</rdf:RDF>
	</metadata>
</svg>