<?xml version="1.0" ?>
<svg xmlns="http://www.w3.org/2000/svg" xmlns:cc="http://creativecommons.org/ns#" xmlns:dc="http://purl.org/dc/elements/1.1/" xmlns:inkscape="http://www.inkscape.org/namespaces/inkscape" xmlns:rdf="http://www.w3.org/1999/02/22-rdf-syntax-ns#" width="124.19042mm" height="124.19042mm" viewBox="0 0 124.19042 124.19042" version="1.1" id="svg151">
	<g inkscape:groupmode="layer" id="g19522" inkscape:label="glasses_002" class="glasses">
		<path style="fill:#1b1b1b;fill-opacity:0.95;stroke:none;stroke-width:0.268158px;stroke-linecap:butt;stroke-linejoin:miter;stroke-opacity:1" d="m 40.943857,52.813113 c -0.04989,-6.315808 -0.593675,-5.631914 9.893352,-5.498353 11.132781,0.141786 9.411969,-0.530768 9.415681,6.040954 0.0033,5.756596 -0.07571,5.74051 -8.940331,5.876524 -10.210714,0.156668 -10.318747,-0.09508 -10.368702,-6.419125 z" id="path19514"/>
		<path style="fill:#1b1b1b;fill-opacity:0.95;stroke:none;stroke-width:0.268158px;stroke-linecap:butt;stroke-linejoin:miter;stroke-opacity:1" d="m 83.751636,52.808252 c 0.04989,-6.315808 0.593675,-5.631914 -9.893352,-5.498353 -11.132781,0.141786 -9.411969,-0.530768 -9.415681,6.040954 -0.0033,5.756596 0.07571,5.74051 8.940331,5.876524 10.210714,0.156668 10.318747,-0.09508 10.368702,-6.419125 z" id="path19516"/>
		<path id="path19518" style="fill:#444236;fill-opacity:1;stroke:none;stroke-width:0.264583px;stroke-linecap:butt;stroke-linejoin:miter;stroke-opacity:1" d="m 74.009627,47.003718 c -9.754896,-0.03336 -9.74887,0.192677 -9.904872,2.100825 -0.05052,0.201824 -1.346044,-0.173177 -1.870636,-0.171079 -0.501232,0.0021 -1.677817,0.297905 -1.747117,0.06774 -0.167451,-1.937722 -0.143001,-1.904479 -9.792712,-1.941154 -9.924327,-0.03772 -9.877334,-0.06338 -9.951976,1.938166 -0.991281,-0.156506 -1.644475,-0.227193 -2.100562,-0.722546 0.02212,0.201227 0.03439,0.363287 0.09043,0.525034 0.412393,0.485312 1.189098,0.639657 1.189095,0.639657 3e-6,0 0.832341,0.433601 0.838001,0.904637 0.110135,9.166295 0.04814,9.126284 10.153037,9.218642 9.509743,0.08692 9.595661,0.05594 9.675451,-9.509861 0.0039,-0.472689 1.498925,-0.63582 1.685615,-0.644422 0.141697,-0.0066 1.702741,0.225585 1.714357,0.736934 0.212916,9.372732 0.254278,9.463723 9.912664,9.427192 10.070727,-0.03809 10.02171,0.104581 10.011621,-9.358127 -6.18e-4,-0.579383 0.589103,-0.993941 1.022484,-1.098741 0.789761,-0.190981 1.058232,-0.318461 1.161192,-0.480798 0.01286,-0.06701 0.01857,-0.221166 0.03204,-0.39119 -0.189727,0.196835 -1.618472,0.640861 -2.173425,0.570656 -0.01659,-1.781187 0.01434,-1.777503 -9.944687,-1.811565 z m -0.250121,0.508998 c 9.60492,-0.04274 9.674433,-0.111207 9.660053,1.414544 -0.09319,9.887457 0.974675,10.174572 -9.678483,10.15224 -9.458116,-0.01983 -9.331169,0.05375 -9.082974,-10.014517 0.03513,-1.425255 -0.08467,-1.511391 9.101404,-1.552267 z m -23.057996,0.05683 c 8.982895,0.116156 9.245148,0.18165 9.258924,1.462255 0.106146,9.866934 0.602913,10.227736 -9.031655,10.077616 -9.982365,-0.155539 -9.779605,-0.190465 -9.602109,-10.172856 0.02362,-1.328614 -0.185358,-1.490636 9.37484,-1.367015 z"/>
		<path style="fill:#a3a3a3;fill-opacity:0.95;stroke:none;stroke-width:0.264583px;stroke-linecap:butt;stroke-linejoin:miter;stroke-opacity:1" d="m 47.762127,49.636558 c 0.329944,-0.121989 0.398789,-0.260056 0.689055,-0.689057 0.110029,0.595249 0.167671,0.561741 0.554606,0.75628 -0.303198,0.114184 -0.457385,0.238711 -0.672251,0.739476 -0.04321,-0.406553 -0.179082,-0.595996 -0.57141,-0.806699 z" id="path38573"/>
		<path style="display:inline;fill:#a3a3a3;fill-opacity:0.95;stroke:none;stroke-width:0.264583px;stroke-linecap:butt;stroke-linejoin:miter;stroke-opacity:1" d="m 70.400126,49.636558 c 0.329944,-0.121989 0.398789,-0.260056 0.689055,-0.689057 0.110029,0.595249 0.167671,0.561741 0.554606,0.75628 -0.303198,0.114184 -0.457385,0.238711 -0.672251,0.739476 -0.04321,-0.406553 -0.179082,-0.595996 -0.57141,-0.806699 z" id="path38573-1"/>
	</g>
	<metadata>
		<rdf:RDF>
			<cc:Work>
				<dc:creator>
					<cc:Agent>
						<dc:title>yurg</dc:title>
					</cc:Agent>
				</dc:creator>
				<dc:source>https://github.com/profile-generators/avatar-parts</dc:source>
				<dc:subject>
					<rdf:Bag>
						<rdf:li>rectangular</rdf:li>
						<rdf:li>sunglasses</rdf:li>
					</rdf:Bag>
				</dc:subject>
			</cc:Work>
			<cc:License rdf:about="http://creativecommons.org/licenses/by/4.0/">
				<cc:permits rdf:resource="http://creativecommons.org/ns#Reproduction"/>
				<cc:permits rdf:resource="http://creativecommons.org/ns#Distribution"/>
				<cc:requires rdf:resource="http://creativecommons.org/ns#Notice"/>
				<cc:requires rdf:resource="http://creativecommons.org/ns#Attribution"/>
				<cc:permits rdf:resource="http://creativecommons.org/ns#DerivativeWorks"/>
			</cc:License>
		</rdf:RDF>
	</metadata>
</svg>