<?xml version="1.0" ?>
<svg xmlns="http://www.w3.org/2000/svg" xmlns:cc="http://creativecommons.org/ns#" xmlns:dc="http://purl.org/dc/elements/1.1/" xmlns:inkscape="http://www.inkscape.org/namespaces/inkscape" xmlns:rdf="http://www.w3.org/1999/02/22-rdf-syntax-ns#" width="124.19042mm" height="124.19042mm" viewBox="0 0 124.19042 124.19042" version="1.1" id="svg151">
	<g inkscape:groupmode="layer" id="layer30" inkscape:label="glasses_0001" style="display:inline" class="glasses">
		<g id="g32177" transform="translate(0.33612471)">
			<path style="fill:#ffffff;fill-opacity:0.487903;stroke:none;stroke-width:0.268158px;stroke-linecap:butt;stroke-linejoin:miter;stroke-opacity:1" d="m 39.451923,51.45923 c -0.01708,-3.936677 4.547621,-5.764367 10.463774,-6.068775 5.238874,-0.269561 10.321911,3.890511 10.22378,7.229334 -0.116057,3.94882 -6.303523,4.637462 -10.223782,4.545538 -3.98383,-0.09342 -10.450969,-2.7558 -10.463772,-5.706097 z" id="path17217-5"/>
			<path style="fill:#ffffff;fill-opacity:0.487903;stroke:none;stroke-width:0.269942px;stroke-linecap:butt;stroke-linejoin:miter;stroke-opacity:1" d="m 84.284061,51.426949 c 0.01716,-3.970051 -4.569602,-5.813238 -10.514351,-6.120226 -5.264196,-0.271847 -10.371802,3.923496 -10.273196,7.290626 0.116618,3.9823 6.333992,4.676781 10.273198,4.584075 4.003087,-0.09421 10.501484,-2.779163 10.514349,-5.754475 z" id="path17217-9-0"/>
			<path id="path5532" style="fill:#75746a;fill-opacity:1;stroke:none;stroke-width:0.264583px;stroke-linecap:butt;stroke-linejoin:miter;stroke-opacity:1" d="m 73.563468,45.031876 c -0.102724,-5.29e-4 -0.203377,-5.29e-4 -0.301275,5.3e-4 -4.026289,0.03939 -8.799412,2.121447 -9.936343,6.663676 -0.05052,0.201824 -1.013298,-0.363318 -1.53789,-0.36122 -0.501232,0.0021 -1.25,0.583116 -1.3193,0.352952 -1.213226,-4.029271 -5.847577,-6.718361 -9.982853,-6.64714 -3.792009,0.06531 -8.736489,0.79225 -10.80761,3.934645 -0.655156,-0.627081 -1.074052,-0.940221 -1.530139,-1.435574 0.02212,0.201227 0.03439,0.363287 0.09043,0.525034 0.412393,0.485312 1.155486,1.547194 1.155483,1.547194 3e-6,0 -0.222353,1.144566 -0.269232,1.613336 -0.365215,3.652211 6.987884,6.245844 11.293882,6.318994 3.757449,0.06383 10.023478,-0.799698 10.150803,-5.041551 0.01418,-0.472493 1.023573,-0.73089 1.210263,-0.739492 0.141697,-0.0066 1.356291,0.228145 1.34462,0.739492 -0.08959,3.927512 5.666827,5.085932 9.778214,5.057571 3.939003,-0.02717 11.381531,-2.135748 11.656653,-6.036839 0.04076,-0.577948 -0.260967,-1.764234 -0.260967,-1.764234 0,0 1.200838,-1.696982 1.303798,-1.859319 0.01286,-0.06701 0.01857,-0.221166 0.03204,-0.39119 -0.189727,0.196835 -1.285726,1.306354 -1.603002,1.568895 -1.873154,-3.27774 -7.283156,-4.029811 -10.467578,-4.045746 z m -0.297656,0.413928 c 0.161679,-6.6e-5 0.323625,0.0036 0.485757,0.01188 5.858994,0.299238 10.379596,2.096251 10.362676,5.966044 -0.01267,2.900175 -6.417334,5.517131 -10.362676,5.60896 -3.882382,0.09036 -10.010026,-0.586729 -10.124961,-4.46846 -0.09415,-3.179535 4.627131,-7.116368 9.639204,-7.11843 z m -22.867855,0.0093 c 5.012071,0.0021 9.733349,3.93941 9.639205,7.118945 -0.114935,3.881731 -6.242582,4.558824 -10.124964,4.468461 -3.94534,-0.09183 -10.349995,-2.709302 -10.362673,-5.609476 -0.01693,-3.869796 4.503681,-5.66629 10.362673,-5.965529 0.162134,-0.0083 0.32408,-0.01246 0.485759,-0.01241 z"/>
		</g>
	</g>
	<metadata>
		<rdf:RDF>
			<cc:Work>
				<dc:creator>
					<cc:Agent>
						<dc:title>yurg</dc:title>
					</cc:Agent>
				</dc:creator>
				<dc:source>https://github.com/profile-generators/avatar-parts</dc:source>
				<dc:subject>
					<rdf:Bag>
						<rdf:li>woman</rdf:li>
					</rdf:Bag>
				</dc:subject>
			</cc:Work>
			<cc:License rdf:about="http://creativecommons.org/licenses/by/4.0/">
				<cc:permits rdf:resource="http://creativecommons.org/ns#Reproduction"/>
				<cc:permits rdf:resource="http://creativecommons.org/ns#Distribution"/>
				<cc:requires rdf:resource="http://creativecommons.org/ns#Notice"/>
				<cc:requires rdf:resource="http://creativecommons.org/ns#Attribution"/>
				<cc:permits rdf:resource="http://creativecommons.org/ns#DerivativeWorks"/>
			</cc:License>
		</rdf:RDF>
	</metadata>
</svg>