<?xml version="1.0" ?>
<svg xmlns="http://www.w3.org/2000/svg" xmlns:cc="http://creativecommons.org/ns#" xmlns:dc="http://purl.org/dc/elements/1.1/" xmlns:inkscape="http://www.inkscape.org/namespaces/inkscape" xmlns:rdf="http://www.w3.org/1999/02/22-rdf-syntax-ns#" width="124.19042mm" height="124.19042mm" viewBox="0 0 124.19042 124.19042" version="1.1" id="svg151">
	<g inkscape:groupmode="layer" id="g32288" inkscape:label="glasses_002" style="display:inline" class="glasses">
		<path id="path32280" style="fill-opacity:1;stroke:none;stroke-width:0.264583px;stroke-linecap:butt;stroke-linejoin:miter;stroke-opacity:1" d="m 73.899593,45.031876 c -0.102724,-5.29e-4 -0.203377,-5.29e-4 -0.301276,5.3e-4 -4.026288,0.03939 -8.799411,2.121447 -9.936342,6.663676 -0.05052,0.201824 -1.013298,-0.363318 -1.53789,-0.36122 -0.501232,0.0021 -1.250001,0.583116 -1.3193,0.352952 -1.213226,-4.029271 -5.847578,-6.718361 -9.982854,-6.64714 -3.792008,0.06531 -8.736488,0.79225 -10.80761,3.934645 -0.655155,-0.627081 -1.074052,-0.940221 -1.530138,-1.435574 0.02212,0.201227 0.03439,0.363287 0.09043,0.525034 0.412393,0.485312 1.155485,1.547194 1.155483,1.547194 2e-6,0 -0.222353,1.144566 -0.269232,1.613336 -0.365215,3.652211 6.987884,6.245844 11.293882,6.318994 3.757448,0.06383 10.023478,-0.799698 10.150803,-5.041551 0.01418,-0.472493 1.023572,-0.73089 1.210262,-0.739492 0.141698,-0.0066 1.356292,0.228145 1.344621,0.739492 -0.08959,3.927512 5.666827,5.085932 9.778214,5.057571 3.939003,-0.02717 11.381531,-2.135748 11.656652,-6.036839 0.04076,-0.577948 -0.260966,-1.764234 -0.260966,-1.764234 0,0 1.200838,-1.696982 1.303798,-1.859319 0.01286,-0.06701 0.01857,-0.221166 0.03204,-0.39119 -0.189727,0.196835 -1.285727,1.306354 -1.603002,1.568895 -1.873155,-3.27774 -7.283156,-4.029811 -10.467578,-4.045746 z m -0.297656,0.413928 c 0.161679,-6.6e-5 0.323625,0.0036 0.485756,0.01188 5.858995,0.299238 10.379597,2.096251 10.362676,5.966044 -0.01267,2.900175 -6.417333,5.517131 -10.362676,5.60896 -3.882382,0.09036 -10.010026,-0.586729 -10.124961,-4.46846 -0.09415,-3.179535 4.627131,-7.116368 9.639205,-7.11843 z m -22.867855,0.0093 c 5.012071,0.0021 9.733348,3.93941 9.639204,7.118945 -0.114935,3.881731 -6.242581,4.558824 -10.124963,4.468461 -3.94534,-0.09183 -10.349995,-2.709302 -10.362674,-5.609476 -0.01693,-3.869796 4.503682,-5.66629 10.362674,-5.965529 0.162134,-0.0083 0.32408,-0.01246 0.485759,-0.01241 z" class="p3"/>
		<path style="fill:#1c1c1c;fill-opacity:0.95;stroke:none;stroke-width:0.264583px;stroke-linecap:butt;stroke-linejoin:miter;stroke-opacity:1" d="m 39.885599,51.437914 c -0.01692,-3.869795 4.503683,-5.666434 10.362675,-5.965671 5.188257,-0.264981 10.222183,3.824415 10.125001,7.106514 -0.114936,3.881732 -6.24262,4.558675 -10.125003,4.468312 -3.945339,-0.09183 -10.349994,-2.708981 -10.362673,-5.609155 z" id="path32282"/>
		<path style="fill:#1b1b1b;fill-opacity:0.95;stroke:none;stroke-width:0.264583px;stroke-linecap:butt;stroke-linejoin:miter;stroke-opacity:1" d="m 84.437087,51.429767 c 0.01692,-3.869795 -4.503683,-5.666434 -10.362675,-5.965671 -5.188257,-0.264981 -10.222183,3.824415 -10.125001,7.106514 0.114936,3.881732 6.242621,4.558675 10.125003,4.468311 3.94534,-0.09183 10.349994,-2.70898 10.362673,-5.609154 z" id="path32284"/>
		<path style="fill:#a3a3a3;fill-opacity:0.95;stroke:none;stroke-width:0.264583px;stroke-linecap:butt;stroke-linejoin:miter;stroke-opacity:1" d="m 47.528034,49.309495 c 0.329944,-0.121989 0.398789,-0.260056 0.689055,-0.689057 0.110029,0.595249 0.167671,0.561741 0.554606,0.75628 -0.303198,0.114184 -0.457385,0.238711 -0.672251,0.739476 -0.04321,-0.406553 -0.179082,-0.595996 -0.57141,-0.806699 z" id="path38573"/>
		<path style="display:inline;fill:#a3a3a3;fill-opacity:0.95;stroke:none;stroke-width:0.264583px;stroke-linecap:butt;stroke-linejoin:miter;stroke-opacity:1" d="m 70.166033,49.309495 c 0.329944,-0.121989 0.398789,-0.260056 0.689055,-0.689057 0.110029,0.595249 0.167671,0.561741 0.554606,0.75628 -0.303198,0.114184 -0.457385,0.238711 -0.672251,0.739476 -0.04321,-0.406553 -0.179082,-0.595996 -0.57141,-0.806699 z" id="path38573-1"/>
	</g>
	<metadata>
		<rdf:RDF>
			<cc:Work>
				<dc:creator>
					<cc:Agent>
						<dc:title>yurg</dc:title>
					</cc:Agent>
				</dc:creator>
				<dc:source>https://github.com/profile-generators/avatar-parts</dc:source>
				<dc:subject>
					<rdf:Bag>
						<rdf:li>medium_long</rdf:li>
						<rdf:li>dark</rdf:li>
						<rdf:li>hair</rdf:li>
					</rdf:Bag>
				</dc:subject>
			</cc:Work>
			<cc:License rdf:about="http://creativecommons.org/licenses/by/4.0/">
				<cc:permits rdf:resource="http://creativecommons.org/ns#Reproduction"/>
				<cc:permits rdf:resource="http://creativecommons.org/ns#Distribution"/>
				<cc:requires rdf:resource="http://creativecommons.org/ns#Notice"/>
				<cc:requires rdf:resource="http://creativecommons.org/ns#Attribution"/>
				<cc:permits rdf:resource="http://creativecommons.org/ns#DerivativeWorks"/>
			</cc:License>
		</rdf:RDF>
	</metadata>
</svg>