<?xml version="1.0" ?>
<svg xmlns="http://www.w3.org/2000/svg" xmlns:cc="http://creativecommons.org/ns#" xmlns:dc="http://purl.org/dc/elements/1.1/" xmlns:inkscape="http://www.inkscape.org/namespaces/inkscape" xmlns:rdf="http://www.w3.org/1999/02/22-rdf-syntax-ns#" width="124.19042mm" height="124.19042mm" viewBox="0 0 124.19042 124.19042" version="1.1" id="svg151">
	<g inkscape:groupmode="layer" id="layer32" inkscape:label="hair_003" class="hair">
		<path style="display:inline;stroke:none;stroke-width:0.264583px;stroke-linecap:butt;stroke-linejoin:miter;stroke-opacity:1" d="m 39.370843,53.150798 c -2.679423,0.302602 -5.380722,-7.135601 -2.957896,-7.529192 -2.65596,0.377002 -3.642302,-4.768887 -0.67225,-5.243547 -2.786291,0.495936 -3.239112,-5.060426 -0.40335,-4.571293 -2.536313,-0.364119 -2.072132,-5.529539 0.94115,-4.840198 -0.91194,-2.647415 0.02868,-5.407786 3.361246,-4.033496 -2.617677,-2.221307 1.191302,-7.224021 3.899046,-4.705746 -2.759646,-2.3897 1.665898,-5.332166 4.033496,-2.823448 -2.409892,-2.662526 2.549624,-5.507847 3.831824,-2.352873 -1.332829,-3.337652 3.983092,-5.000334 5.04187,-1.142824 -0.991283,-3.813257 5.388165,-4.374016 5.512445,-1.075599 -0.188586,-3.222506 5.744296,-3.017169 5.377995,1.075599 0.3889,-4.000526 5.987825,-1.914409 4.974645,1.210049 1.104,-3.000841 6.53734,-0.764446 5.1091,2.420098 1.44248,-3.225966 5.81106,0.684285 3.36124,3.495697 2.36454,-2.608767 6.706309,2.566983 3.7646,4.436846 2.531977,-1.915909 5.856985,2.908879 3.63015,4.033497 2.99749,-1.159647 3.43215,4.088463 0.67225,4.033496 2.84814,0.03777 2.70529,5.272212 0.13445,4.974646 2.75328,0.362775 0.99509,5.665176 -0.94115,4.436845 2.13147,1.615659 0.0328,5.302771 -2.9579,9.142592 -2.09941,-4.760956 0.54511,-6.780651 -2.1512,-14.251685 -1.09169,1.008198 -3.08465,-3.152127 -1.47895,-3.899048 -1.64901,0.615935 -5.37525,-0.224133 -4.97464,-2.285649 -0.0762,1.883141 -5.695022,1.485005 -5.646898,-0.806698 -0.04065,2.144898 -5.809835,2.601511 -5.915794,0.806698 0.134138,1.696239 -5.787664,1.589994 -5.646897,-0.268898 -0.07781,1.567979 -5.561649,1.145658 -5.646893,-0.806699 -0.0011,1.888003 -5.461107,2.626199 -6.319144,1.344499 0.813201,1.273362 -2.569636,3.402357 -3.899048,1.882298 1.262422,1.470657 -1.798687,3.159045 -2.151198,4.840195 -0.864989,4.125196 0.356461,7.661212 -1.882299,12.503838 z" id="path12148-4" class="hair"/>
	</g>
	<metadata>
		<rdf:RDF>
			<cc:Work>
				<dc:creator>
					<cc:Agent>
						<dc:title>yurg</dc:title>
					</cc:Agent>
				</dc:creator>
				<dc:source>https://github.com/profile-generators/avatar-parts</dc:source>
				<dc:subject>
					<rdf:Bag>
						<rdf:li>curly_hair</rdf:li>
					</rdf:Bag>
				</dc:subject>
			</cc:Work>
			<cc:License rdf:about="http://creativecommons.org/licenses/by/4.0/">
				<cc:permits rdf:resource="http://creativecommons.org/ns#Reproduction"/>
				<cc:permits rdf:resource="http://creativecommons.org/ns#Distribution"/>
				<cc:requires rdf:resource="http://creativecommons.org/ns#Notice"/>
				<cc:requires rdf:resource="http://creativecommons.org/ns#Attribution"/>
				<cc:permits rdf:resource="http://creativecommons.org/ns#DerivativeWorks"/>
			</cc:License>
		</rdf:RDF>
	</metadata>
</svg>