<?xml version="1.0" ?>
<svg xmlns="http://www.w3.org/2000/svg" xmlns:cc="http://creativecommons.org/ns#" xmlns:dc="http://purl.org/dc/elements/1.1/" xmlns:inkscape="http://www.inkscape.org/namespaces/inkscape" xmlns:rdf="http://www.w3.org/1999/02/22-rdf-syntax-ns#" width="124.19042mm" height="124.19042mm" viewBox="0 0 124.19042 124.19042" version="1.1" id="svg151">
	<g inkscape:groupmode="layer" id="layer31" inkscape:label="hair_0004" class="hair">
		<path style="display:inline;stroke:none;stroke-width:0.264583px;stroke-linecap:butt;stroke-linejoin:miter;stroke-opacity:1" d="m 39.100179,55.520531 c -2.679423,0.302602 -4.586972,-8.061643 -2.957896,-7.529192 -1.597627,0.641585 -1.261051,-5.761075 -0.473812,-6.103443 -0.984304,-1.235204 -0.41754,-6.289799 0.324254,-6.026501 -1.028456,-1.758327 2.910237,-12.345921 4.96288,-8.684254 -2.569363,-1.289189 1.151581,-4.901297 2.180228,-3.241541 -1.488202,-0.883018 2.172367,-4.670707 3.931927,-2.489394 -1.380904,-2.241577 2.981923,-4.386692 4.065685,-2.025468 -1.0021,-2.147027 4.379967,-4.868042 5.04187,-1.142824 -1.718887,-3.019507 5.388165,-4.374016 5.512445,-1.075599 -0.188586,-3.222506 7.199505,-2.554148 5.642578,0.546432 0.322755,-3.339067 6.252409,-1.054513 5.040791,1.210049 1.104,-3.000841 6.206611,-0.235279 4.778371,2.949265 1.44248,-3.225966 5.414185,0.353556 3.956552,2.17278 1.703082,-1.682725 4.589643,1.244067 3.367725,2.981638 2.058611,-1.756287 5.391056,6.780201 4.798495,9.125326 1.134996,0.550887 0.820133,6.2644 -0.295499,6.099125 1.562655,0.75965 0.06905,5.069864 -0.478129,5.032158 1.205428,1.549513 -0.297929,5.104333 -3.288629,8.944154 -2.09941,-4.760956 0.148235,-6.582213 -2.548075,-14.053247 -1.157836,-1.174615 -1.960171,-2.556814 -1.47895,-3.899048 -1.64901,0.615935 -5.37525,-0.224133 -4.97464,-2.285649 -0.0762,1.883141 -4.835126,0.29438 -4.787002,-1.997323 -0.04065,2.144898 -6.669731,3.792136 -6.77569,1.997323 0.134138,1.696239 -5.787664,1.589994 -5.646897,-0.268898 -0.07781,1.567979 -5.627795,0.550345 -5.713039,-1.402012 -0.0011,1.888003 -5.394961,3.221512 -6.252998,1.939812 0.813201,1.273362 -2.569636,3.402357 -3.899048,1.882298 1.262422,1.470657 -1.798687,3.159045 -2.151198,4.840195 -0.864989,4.125196 0.356461,7.661212 -1.882299,12.503838 z" id="path12148-4" class="hair"/>
	</g>
	<metadata>
		<rdf:RDF>
			<cc:Work>
				<dc:creator>
					<cc:Agent>
						<dc:title>yurg</dc:title>
					</cc:Agent>
				</dc:creator>
				<dc:source>https://github.com/profile-generators/avatar-parts</dc:source>
				<dc:subject>
					<rdf:Bag>
						<rdf:li>curly</rdf:li>
					</rdf:Bag>
				</dc:subject>
			</cc:Work>
			<cc:License rdf:about="http://creativecommons.org/licenses/by/4.0/">
				<cc:permits rdf:resource="http://creativecommons.org/ns#Reproduction"/>
				<cc:permits rdf:resource="http://creativecommons.org/ns#Distribution"/>
				<cc:requires rdf:resource="http://creativecommons.org/ns#Notice"/>
				<cc:requires rdf:resource="http://creativecommons.org/ns#Attribution"/>
				<cc:permits rdf:resource="http://creativecommons.org/ns#DerivativeWorks"/>
			</cc:License>
		</rdf:RDF>
	</metadata>
</svg>