<?xml version="1.0" ?>
<svg xmlns="http://www.w3.org/2000/svg" xmlns:cc="http://creativecommons.org/ns#" xmlns:dc="http://purl.org/dc/elements/1.1/" xmlns:inkscape="http://www.inkscape.org/namespaces/inkscape" xmlns:rdf="http://www.w3.org/1999/02/22-rdf-syntax-ns#" width="124.19042mm" height="124.19042mm" viewBox="0 0 124.19042 124.19042" version="1.1" id="svg151">
	<g inkscape:groupmode="layer" id="g23164" inkscape:label="hair_0001" style=";opacity:1" class="hair">
		<path id="path86" d="m 89.48754,36.909654 c 0,3.941437 -2.213575,8.766666 -2.421252,13.101622 -0.269906,5.633902 3.11322,30.84713 0.559304,26.469585 -4.340821,-7.440386 -3.439361,-8.224058 -2.204465,-16.047281 1.645161,-10.422304 -0.216639,-16.108686 -2.521746,-19.97333 -1.39996,-2.347118 -8.04222,-5.287999 -5.35503,-1.223863 -2.67804,1.009995 -7.10375,-3.494162 -7.10375,-3.494162 0,0 -2.63431,-1.380165 -0.0319,3.283428 -3.1005,0.220054 -7.12298,-2.923839 -7.12298,-2.923839 0,0 -2.75124,-2.477666 -0.38535,2.764633 -4.28037,-0.316977 -5.80632,-3.088122 -5.80632,-3.088122 0,0 -3.69244,-1.596916 -1.47495,2.115684 -4.92257,0.116265 -7.73412,-3.837291 -7.73293,-3.83708 0,0 -3.852037,1.888682 -5.554867,5.38504 -2.58701,5.311776 -3.208953,13.71157 -1.462023,19.924135 2.28225,8.116307 -3.83585,23.092233 -4.45921,16.941846 -0.58886,-5.809858 1.31486,-21.28259 1.56241,-27.243693 -1.07112,-4.406385 -2.17981,-9.306332 -2.17981,-12.961305 0,-10.810397 12.8077,-21.120128 26.88105,-20.985678 14.13992,0.135086 26.813815,10.98198 26.813815,21.792377 z" class="hair" style="display:inline"/>
	</g>
	<metadata>
		<rdf:RDF>
			<cc:Work>
				<dc:creator>
					<cc:Agent>
						<dc:title>yurg</dc:title>
					</cc:Agent>
				</dc:creator>
				<dc:source>https://github.com/profile-generators/avatar-parts</dc:source>
				<dc:subject>
					<rdf:Bag>
						<rdf:li>semi-long</rdf:li>
					</rdf:Bag>
				</dc:subject>
			</cc:Work>
			<cc:License rdf:about="http://creativecommons.org/licenses/by/4.0/">
				<cc:permits rdf:resource="http://creativecommons.org/ns#Reproduction"/>
				<cc:permits rdf:resource="http://creativecommons.org/ns#Distribution"/>
				<cc:requires rdf:resource="http://creativecommons.org/ns#Notice"/>
				<cc:requires rdf:resource="http://creativecommons.org/ns#Attribution"/>
				<cc:permits rdf:resource="http://creativecommons.org/ns#DerivativeWorks"/>
			</cc:License>
		</rdf:RDF>
	</metadata>
</svg>