<?xml version="1.0" ?>
<svg xmlns="http://www.w3.org/2000/svg" xmlns:cc="http://creativecommons.org/ns#" xmlns:dc="http://purl.org/dc/elements/1.1/" xmlns:inkscape="http://www.inkscape.org/namespaces/inkscape" xmlns:rdf="http://www.w3.org/1999/02/22-rdf-syntax-ns#" width="124.19042mm" height="124.19042mm" viewBox="0 0 124.19042 124.19042" version="1.1" id="svg151">
	<g inkscape:groupmode="layer" id="layer24" inkscape:label="hair_0000" style=";opacity:1" class="hair">
		<path id="path13174" d="m 89.446749,36.961105 c 0,3.941437 0.334516,13.1529 -2.421252,13.101622 -1.412398,-0.02628 -3.181139,-5.000112 -5.645854,-9.887151 -12.320693,-0.03569 -15.445171,-3.535508 -16.524173,-3.989141 -0.51642,-0.217113 1.118206,2.010034 1.347358,4.067554 0.423898,3.806111 -6.037932,-2.547709 -7.670619,-4.356985 0.34353,5.512445 -3.450714,3.140605 -10.68683,-1.788621 -7.823764,5.019061 -7.7858,17.738062 -9.913689,15.007328 -2.281166,-2.927436 -2.179803,-9.306332 -2.179803,-12.961305 0,-10.810397 12.807698,-21.120129 26.881044,-20.985679 14.139926,0.135086 26.813818,10.981981 26.813818,21.792378 z" class="hair"/>
	</g>
	<metadata>
		<rdf:RDF>
			<cc:Work>
				<dc:creator>
					<cc:Agent>
						<dc:title>yurg</dc:title>
					</cc:Agent>
				</dc:creator>
				<dc:source>https://github.com/profile-generators/avatar-parts</dc:source>
				<dc:subject>
					<rdf:Bag>
						<rdf:li>medium_long</rdf:li>
						<rdf:li>hair</rdf:li>
					</rdf:Bag>
				</dc:subject>
			</cc:Work>
			<cc:License rdf:about="http://creativecommons.org/licenses/by/4.0/">
				<cc:permits rdf:resource="http://creativecommons.org/ns#Reproduction"/>
				<cc:permits rdf:resource="http://creativecommons.org/ns#Distribution"/>
				<cc:requires rdf:resource="http://creativecommons.org/ns#Notice"/>
				<cc:requires rdf:resource="http://creativecommons.org/ns#Attribution"/>
				<cc:permits rdf:resource="http://creativecommons.org/ns#DerivativeWorks"/>
			</cc:License>
		</rdf:RDF>
	</metadata>
</svg>