<?xml version="1.0" ?>
<svg xmlns="http://www.w3.org/2000/svg" xmlns:cc="http://creativecommons.org/ns#" xmlns:dc="http://purl.org/dc/elements/1.1/" xmlns:inkscape="http://www.inkscape.org/namespaces/inkscape" xmlns:rdf="http://www.w3.org/1999/02/22-rdf-syntax-ns#" width="124.19042mm" height="124.19042mm" viewBox="0 0 124.19042 124.19042" version="1.1" id="svg151">
	<g inkscape:groupmode="layer" id="layer33" inkscape:label="hair_004" class="hair">
		<path style="stroke:none;stroke-width:0.200655px;stroke-linecap:butt;stroke-linejoin:miter;stroke-opacity:1" d="m 37.797146,95.256768 c 2.529049,0.351516 2.853715,0.325742 4.629592,0.463028 -0.545002,-18.949842 -0.937389,-49.052143 0.185097,-56.541644 0.334317,5.57167 0.07586,5.392461 0.619032,9.182687 1.213198,-0.587999 2.192894,-0.837498 2.957593,-1.020299 -0.08248,-1.453953 -0.274431,-1.899564 -0.137563,-3.325416 0.334959,1.523157 0.487009,1.966495 0.825377,3.174261 -0.07772,-2.173124 -0.07687,-3.610039 0,-6.953146 0.445352,3.425986 0.476726,3.37998 0.687811,6.650836 1.337781,-0.39542 1.170337,-0.53836 3.129549,-0.831355 0.04367,-1.907152 0.109695,-1.787765 0.171953,-3.854459 0.361611,2.102911 0.418723,2.052742 0.687814,3.627727 1.242489,-0.09792 1.983968,-0.239022 2.682469,-0.340099 -0.109137,-2.109264 -0.09335,-2.10126 -0.06879,-5.554959 0.69777,3.501265 0.763333,3.583438 0.997325,5.441593 0.351399,-0.0031 0.450795,-0.02668 0.928549,-0.151154 0.02579,-1.544134 0.054,-1.730717 0.275125,-3.325421 0.278603,1.765929 0.202512,1.548747 0.447078,3.28763 0.263848,-0.04 0.290079,-0.07058 0.689921,-0.08289 -0.01399,-5.026414 -0.06673,-5.340373 0.06668,-9.364319 0.362412,6.300096 0.264547,4.924833 0.412688,9.333839 0.456071,-0.02281 0.525512,-0.03701 1.066109,2e-6 0.182997,-4.222729 0.247933,-4.131669 0.481468,-7.104302 0.271332,3.035751 0.33292,2.737997 0.550251,7.104302 0.475889,-0.03336 0.499169,0.01834 1.238061,0 0.18364,-3.8673 0.231368,-3.921521 0,-9.673941 0.453584,5.655638 0.456781,5.668309 0.653421,9.560575 1.015668,0.03918 1.96718,0.105773 2.682473,0.07557 0.0481,-2.093451 0.09672,-2.067266 0.240733,-3.892249 0.301812,2.443183 0.212417,2.289012 0.653422,3.930038 0.853207,-0.06788 1.441862,0.157 2.235392,0.151156 0.03314,-2.121475 0.112592,-2.144441 0.275124,-5.290438 0.284689,3.125381 0.413162,3.241934 0.55025,5.441592 1.060974,0.05489 2.01251,0.259153 2.991987,0.340099 0.247852,-3.18849 0.258515,-3.255099 0.584641,-6.386312 0.119421,3.595583 0.270923,3.627371 0.412687,6.499679 1.25237,0.166951 2.471718,0.541566 3.576625,0.755777 0.116188,-2.800337 0.09764,-2.786395 0.412688,-5.441591 0.02515,3.014611 0.153992,2.755365 0.240734,5.517167 0.75141,0.196122 0.942681,0.301694 1.547578,0.529045 0.188467,-1.06132 0.218351,-0.960177 0.55025,-2.26733 0.221803,1.075604 0.237765,1.04895 0.275125,2.418484 0.617678,0.24505 0.619505,0.298666 1.51319,0.453467 0.113751,-0.979675 0.170323,-0.917555 0.412686,-2.116175 0.149439,1.442277 0.01915,1.515399 0.137564,2.418487 0.407301,0.07964 0.398311,0.05325 0.859767,0.30231 0.195155,-6.108003 0.217547,-5.999848 0.378295,-9.220477 2.521225,14.542917 0.177834,26.378568 -0.232633,56.669599 2.43503,-0.310852 2.744505,-0.469023 5.609806,-0.893285 C 89.595936,67.569947 93.700403,12.24859 62.420842,16.051391 31.254095,11.085742 34.555779,70.83894 37.797146,95.256768 Z" id="path19224" class="hair"/>
	</g>
	<metadata>
		<rdf:RDF>
			<cc:Work>
				<dc:creator>
					<cc:Agent>
						<dc:title>yurg</dc:title>
					</cc:Agent>
				</dc:creator>
				<dc:source>https://github.com/profile-generators/avatar-parts</dc:source>
				<dc:subject>
					<rdf:Bag>
						<rdf:li>smooth_hair</rdf:li>
						<rdf:li>long</rdf:li>
					</rdf:Bag>
				</dc:subject>
			</cc:Work>
			<cc:License rdf:about="http://creativecommons.org/licenses/by/4.0/">
				<cc:permits rdf:resource="http://creativecommons.org/ns#Reproduction"/>
				<cc:permits rdf:resource="http://creativecommons.org/ns#Distribution"/>
				<cc:requires rdf:resource="http://creativecommons.org/ns#Notice"/>
				<cc:requires rdf:resource="http://creativecommons.org/ns#Attribution"/>
				<cc:permits rdf:resource="http://creativecommons.org/ns#DerivativeWorks"/>
			</cc:License>
		</rdf:RDF>
	</metadata>
</svg>