<?xml version="1.0" ?>
<svg xmlns="http://www.w3.org/2000/svg" xmlns:cc="http://creativecommons.org/ns#" xmlns:dc="http://purl.org/dc/elements/1.1/" xmlns:inkscape="http://www.inkscape.org/namespaces/inkscape" xmlns:rdf="http://www.w3.org/1999/02/22-rdf-syntax-ns#" width="124.19042mm" height="124.19042mm" viewBox="0 0 124.19042 124.19042" version="1.1" id="svg151">
	<g inkscape:groupmode="layer" id="layer29" inkscape:label="hair_0002" class="hair">
		<path style="display:inline;fill-opacity:1;stroke:none;stroke-width:0.244864;stroke-linecap:butt;stroke-linejoin:miter;stroke-miterlimit:4;stroke-dasharray:none;stroke-opacity:1" d="m 41.85521,89.625764 c -1.785133,-10.543099 -2.49958,-1.722838 -1.894868,4.094372 -2.278129,-1.64796 -1.419946,-10.02481 -1.419946,-10.02481 0,0 -2.314538,6.800708 1.943339,16.200349 -10.855469,-5.627201 -9.181782,-14.194287 -9.181782,-14.194287 0,0 -1.427855,3.888699 -4.375595,4.664703 1.20444,-4.839782 1.138786,-4.880845 1.578085,-9.832755 0.962775,-10.852694 1.326141,-26.577903 3.009917,-32.746695 1.757449,-6.438704 4.171488,-12.833078 4.240642,-13.139472 0.690385,-3.058821 0.575109,-2.558993 1.670623,-5.301589 0.357425,-0.894806 2.428818,-4.095901 4.094466,-5.665598 2.121325,-1.999124 4.479595,-3.771588 6.998057,-5.124558 2.208838,-1.186633 4.570942,-2.129644 6.998058,-2.562274 2.302565,-0.410427 4.665375,0 6.998058,0 2.332682,0 4.695491,-0.410428 6.998057,0 2.427116,0.432629 4.648902,1.515958 6.85774,2.702591 2.518463,1.35297 4.596101,3.218976 6.764198,5.17133 1.70079,1.531546 2.874592,2.990042 4.069466,5.031012 1.367616,2.371591 1.679176,4.222307 2.504575,7.667113 1.449937,6.051328 5.42387,12.670059 5.260125,48.50122 -0.470543,3.944005 0.659201,7.0284 -2.612143,11.577028 0,-1.281141 1.244001,-11.272841 1.243993,-13.278147 -0.233266,2.005306 -2.177038,11.612717 -1.692645,14.360018 0.377388,1.964509 -0.165217,3.216035 -0.165217,3.216035 0,0 -5.104654,-2.335514 -5.829952,-2.873008 -13.137569,-9.735757 1.459484,-36.19441 -3.921204,-51.009101 -0.374435,-1.030941 -1.002475,-2.806335 -1.990323,-3.773873 -0.947168,-0.927698 -3.090518,-1.037556 -1.546907,5.418589 -2.788194,-2.335432 -3.985371,-5.599839 -3.965349,-5.594948 0,0 -1.239037,0.998092 -0.855513,4.997161 -4.576487,-2.236139 -4.314136,-6.263506 -4.314136,-6.263506 0,0 -2.200497,0.468967 -1.828408,3.274576 -1.824485,-1.806238 -2.514813,-3.345348 -2.514813,-3.345348 0,0 -2.106426,-1.071818 -1.839579,1.381189 -1.343001,-0.791441 -1.775139,-2.376715 -1.775139,-2.376715 0,0 -1.667711,0.934535 -2.112765,3.145302 -1.005737,-2.318048 -0.451332,-5.180252 -0.451332,-5.180252 0,0 -0.476953,6.733878 -5.45798,9.108559 1.220331,-3.693136 0.557229,-4.89479 0.557229,-4.89479 0,0 -0.997283,3.204646 -5.689078,5.663376 -0.184645,-4.261492 -1.903892,-5.669884 -1.903892,-5.669884 0,0 -3.911912,3.471 -4.26997,8.375126 -0.981807,13.44735 0.313358,18.489207 0.73883,21.390021 0.386423,2.634567 2.194411,10.931172 0.402465,14.375745 z" id="path51665" class="hair"/>
		<path style="fill:#000000;fill-opacity:0.04;stroke:none;stroke-width:0.05;stroke-linecap:butt;stroke-linejoin:miter;stroke-miterlimit:4;stroke-dasharray:none;stroke-opacity:1" d="m 43.391666,73.091145 c 1.41877,8.033893 2.524605,12.235017 1.322917,16.834114 1.13136,-2.779151 2.232608,-2.109025 1.455208,-7.176823 -0.507894,-3.310919 -1.467463,-5.166448 -2.778125,-9.657291 z" id="path26790"/>
	</g>
	<metadata>
		<rdf:RDF>
			<cc:Work>
				<dc:creator>
					<cc:Agent>
						<dc:title>yurg</dc:title>
					</cc:Agent>
				</dc:creator>
				<dc:source>https://github.com/profile-generators/avatar-parts</dc:source>
				<dc:subject>
					<rdf:Bag>
						<rdf:li>long</rdf:li>
					</rdf:Bag>
				</dc:subject>
			</cc:Work>
			<cc:License rdf:about="http://creativecommons.org/licenses/by/4.0/">
				<cc:permits rdf:resource="http://creativecommons.org/ns#Reproduction"/>
				<cc:permits rdf:resource="http://creativecommons.org/ns#Distribution"/>
				<cc:requires rdf:resource="http://creativecommons.org/ns#Notice"/>
				<cc:requires rdf:resource="http://creativecommons.org/ns#Attribution"/>
				<cc:permits rdf:resource="http://creativecommons.org/ns#DerivativeWorks"/>
			</cc:License>
		</rdf:RDF>
	</metadata>
</svg>