<?xml version="1.0" ?>
<svg xmlns="http://www.w3.org/2000/svg" xmlns:cc="http://creativecommons.org/ns#" xmlns:dc="http://purl.org/dc/elements/1.1/" xmlns:inkscape="http://www.inkscape.org/namespaces/inkscape" xmlns:rdf="http://www.w3.org/1999/02/22-rdf-syntax-ns#" width="124.19042mm" height="124.19042mm" viewBox="0 0 124.19042 124.19042" version="1.1" id="svg151">
	<g inkscape:groupmode="layer" id="layer23" inkscape:label="hair_0001" style="display:inline" class="hair">
		<path id="path86" d="m 89.232179,38.204988 c 0,3.941437 -2.213575,8.766666 -2.421252,13.101622 -0.269906,5.633902 3.11322,30.84713 0.559304,26.469585 -4.340817,-7.440386 -3.439361,-8.224058 -2.204465,-16.047281 1.645161,-10.422304 -0.216639,-16.108686 -2.521744,-19.97333 -1.399961,-2.347118 -8.042221,-5.287999 -5.355034,-1.223863 -2.678035,1.009995 -7.103747,-3.494162 -7.103747,-3.494162 0,0 -2.634313,-1.380165 -0.0319,3.283428 -3.100504,0.220054 -7.122984,-2.923839 -7.122984,-2.923839 0,0 -2.751238,-2.477666 -0.385343,2.764633 -4.280371,-0.316977 -5.806328,-3.088122 -5.806328,-3.088122 0,0 -3.692437,-1.596916 -1.474946,2.115684 -4.922567,0.116265 -7.734121,-3.837291 -7.732935,-3.83708 0,0 -4.116613,1.557953 -5.819449,5.054311 -2.587002,5.311776 -2.944363,14.042299 -1.197434,20.254864 2.282248,8.116307 -3.835849,23.092233 -4.459217,16.941846 -0.588854,-5.809858 1.31486,-21.28259 1.562411,-27.243693 -1.071117,-4.406385 -2.179803,-9.306332 -2.179803,-12.961305 0,-10.810397 12.807698,-21.120128 26.881044,-20.985678 14.139926,0.135086 26.813818,10.98198 26.813818,21.792377 z" class="hair"/>
	</g>
	<metadata>
		<rdf:RDF>
			<cc:Work>
				<dc:creator>
					<cc:Agent>
						<dc:title>yurg</dc:title>
					</cc:Agent>
				</dc:creator>
				<dc:source>https://github.com/profile-generators/avatar-parts</dc:source>
				<dc:subject>
					<rdf:Bag>
						<rdf:li>medium_long</rdf:li>
						<rdf:li>dark</rdf:li>
						<rdf:li>hair</rdf:li>
					</rdf:Bag>
				</dc:subject>
			</cc:Work>
			<cc:License rdf:about="http://creativecommons.org/licenses/by/4.0/">
				<cc:permits rdf:resource="http://creativecommons.org/ns#Reproduction"/>
				<cc:permits rdf:resource="http://creativecommons.org/ns#Distribution"/>
				<cc:requires rdf:resource="http://creativecommons.org/ns#Notice"/>
				<cc:requires rdf:resource="http://creativecommons.org/ns#Attribution"/>
				<cc:permits rdf:resource="http://creativecommons.org/ns#DerivativeWorks"/>
			</cc:License>
		</rdf:RDF>
	</metadata>
</svg>