<?xml version="1.0" ?>
<svg xmlns="http://www.w3.org/2000/svg" xmlns:cc="http://creativecommons.org/ns#" xmlns:dc="http://purl.org/dc/elements/1.1/" xmlns:inkscape="http://www.inkscape.org/namespaces/inkscape" xmlns:rdf="http://www.w3.org/1999/02/22-rdf-syntax-ns#" width="124.19042mm" height="124.19042mm" viewBox="0 0 124.19042 124.19042" version="1.1" id="svg151">
	<g inkscape:groupmode="layer" id="g116746" inkscape:label="hair_002" class="hair">
		<path style="stroke:none;stroke-width:0.200655px;stroke-linecap:butt;stroke-linejoin:miter;stroke-opacity:1" d="m 37.177186,45.323782 c 0.0019,-0.199639 0.10518,-0.489498 0.10518,-0.489498 0,0 -0.05039,0.129038 -0.03515,0.514302 0.547034,0.218958 0.720511,0.264408 1.242608,0.415837 -0.0041,-0.626826 0.128357,-0.721499 0.128357,-0.721499 0,0 -0.06585,0.188849 -0.02906,0.731577 0.572221,0.11215 1.493603,0.280267 1.969233,0.308995 0.06487,-1.318516 -0.113756,-1.275799 0.0195,-2.870621 0.100042,1.187671 0.271155,2.823563 0.271155,2.823563 l 0.297314,-0.01305 c 0,0 -0.372313,-0.438874 0.750173,-7.928375 0.170614,5.524898 0.286334,3.895752 0.431943,7.779522 0.50247,-0.243531 1.077336,-0.462583 1.557415,-0.628095 -0.01125,-0.183148 -0.139408,-3.613566 -0.144058,-3.77635 0.02447,0.165141 0.368775,3.542038 0.389091,3.698662 0.499997,-0.156699 1.089004,-0.325165 1.435774,-0.40806 -0.08248,-1.453953 -0.274431,-1.899564 -0.137563,-3.325416 0.334959,1.523157 0.487009,1.966495 0.825377,3.174261 -0.07772,-2.173124 -0.07687,-3.610039 0,-6.953146 0.445352,3.425986 0.476726,3.37998 0.687811,6.650836 0.327051,-0.09667 0.564139,-0.178249 0.764332,-0.25062 0.02952,-1.004256 0.0078,-1.163714 -0.02055,-1.842995 0.05423,0.560993 0.09358,0.899815 0.203993,1.785052 0.402627,-0.141467 1.07988,-0.358007 2.181772,-0.522792 0.04367,-1.907152 0.109695,-1.787765 0.171953,-3.854459 0.361611,2.102911 0.418723,2.052742 0.687814,3.627727 1.242489,-0.09792 1.983968,-0.239022 2.682469,-0.340099 -0.109137,-2.109264 -0.09335,-2.10126 -0.06879,-5.554959 0.69777,3.501265 0.763333,3.583438 0.997325,5.441593 0.351399,-0.0031 0.450795,-0.02668 0.928549,-0.151154 0.02579,-1.544134 0.054,-1.730717 0.275125,-3.325421 0.278603,1.765929 0.202512,1.548747 0.447078,3.28763 0.263848,-0.04 0.290079,-0.07058 0.689921,-0.08289 -0.01399,-5.026414 -0.06673,-4.083602 0.06668,-8.107548 0.362412,6.300096 0.264547,3.668062 0.412688,8.077068 0.456071,-0.02281 0.525512,-0.03701 1.066109,2e-6 0.182997,-4.222729 0.247933,-4.131669 0.481468,-7.104302 0.271332,3.035751 0.33292,2.737997 0.550251,7.104302 0.475889,-0.03336 0.499169,0.01834 1.238061,0 0.18364,-3.8673 0.231368,-2.201729 0,-7.954149 0.453584,5.655638 0.456781,3.948517 0.653421,7.840783 0.171711,0.0066 0.341588,0.01403 0.5088,0.02162 0.04895,-0.432705 0.0668,-0.662832 0.08042,-0.835079 0.0175,0.243125 0.02252,0.395301 0.0936,0.843066 0.194449,0.009 0.384807,0.01796 0.569717,0.0259 0.154201,-0.778111 0.161767,-0.854839 0.233127,-1.440214 0.0107,0.367908 0.009,0.56032 0.1176,1.454114 0.396356,0.01393 0.761133,0.01964 1.079202,0.0062 0.0481,-2.093451 0.09672,-2.067266 0.240733,-3.892249 0.301812,2.443183 0.212417,2.289012 0.653422,3.930038 0.278948,-0.02219 0.529618,-0.01309 0.768415,0.009 0.05462,-0.135093 0.07696,-0.2466 0.09187,-0.426604 0.02086,0.124154 0.05895,0.391947 0.107054,0.447944 0.414917,0.0497 0.806889,0.124234 1.268057,0.120838 0.03314,-2.121475 0.112592,-2.144441 0.275124,-5.290438 0.284689,3.125381 0.413162,3.241934 0.55025,5.441592 0.516388,0.02672 1.123781,0.08882 1.604159,0.15486 0.133312,-0.425543 0.03703,-0.567529 0.05027,-0.729958 0.01371,0.139147 0.12233,0.396696 0.150469,0.774048 0.397209,0.0552 0.78985,0.108316 1.187087,0.141144 0.09584,-3.223569 0.258515,-3.255099 0.584641,-6.386312 0.119421,3.595583 0.177379,3.627371 0.319143,6.499679 0.791981,0.105577 1.6643,0.294202 2.409279,0.47279 0.178664,-0.805115 0.222667,-0.780081 0.284012,-1.526884 -0.01038,0.667681 0.08428,0.592763 0.04428,1.605171 0.318345,0.07523 0.629769,0.14599 0.932597,0.2047 0.116188,-2.800337 0.09764,-2.786395 0.412688,-5.441591 0.02515,3.014611 0.153992,2.755365 0.240734,5.517167 0.75141,0.196122 0.942681,0.301694 1.547578,0.529045 0.188467,-1.06132 0.218351,-0.960177 0.55025,-2.26733 0.221803,1.075604 0.237765,1.04895 0.275125,2.418484 0.617678,0.24505 0.619505,0.298666 1.51319,0.453467 0.113751,-0.979675 0.170323,-0.917555 0.412686,-2.116175 0.149439,1.442277 0.01915,1.515399 0.137564,2.418487 0.407301,0.07964 0.398311,0.05325 0.859767,0.30231 0.195155,-6.108003 0.217547,-4.409594 0.378295,-7.630223 0.669141,7.66375 0.08429,2.365683 0.759555,8.049658 0.544886,-0.06956 1.297177,0.225495 1.96283,0.227451 0.146118,-1.948076 -0.04209,-2.125096 -0.122755,-3.772884 0.137015,1.18591 0.169405,1.799657 0.38821,3.769882 0.763499,-0.0057 1.237174,-0.377269 2.636018,-0.984452 0.01631,-0.03826 0.06342,-0.565348 0.05274,-1.226658 0.02293,0.494946 0.04347,1.153521 0.0454,1.183703 0.28962,-0.127825 0.578141,-0.26458 0.85973,-0.408691 -0.01354,-0.573986 -0.02139,-1.165691 -0.02049,-1.50032 0.02403,0.283809 0.01289,0.766249 0.130238,1.441485 0.223863,-0.119447 0.601282,-0.541235 0.624277,-1.006412 0.15034,-3.041357 0.08283,-4.999646 0.130542,-8.986609 C 89.143904,33.483211 88.680133,32.170793 88.249034,31.078708 85.45853,24.009643 74.525328,14.308457 62.173249,15.810157 50.927861,14.018482 38.811986,24.885663 36.969846,30.416532 c -0.434236,1.303758 -0.482393,1.087455 -1.135485,4.025327 -0.222754,2.872255 -0.2378,5.775321 0.112033,9.411192 0.07002,0.727705 0.273488,1.02115 1.230792,1.470733 z" id="path116744" class="hair"/>
	</g>
	<metadata>
		<rdf:RDF>
			<cc:Work>
				<dc:creator>
					<cc:Agent>
						<dc:title>yurg</dc:title>
					</cc:Agent>
				</dc:creator>
				<dc:source>https://github.com/profile-generators/avatar-parts</dc:source>
				<dc:subject>
					<rdf:Bag>
						<rdf:li>thin</rdf:li>
					</rdf:Bag>
				</dc:subject>
			</cc:Work>
			<cc:License rdf:about="http://creativecommons.org/licenses/by/4.0/">
				<cc:permits rdf:resource="http://creativecommons.org/ns#Reproduction"/>
				<cc:permits rdf:resource="http://creativecommons.org/ns#Distribution"/>
				<cc:requires rdf:resource="http://creativecommons.org/ns#Notice"/>
				<cc:requires rdf:resource="http://creativecommons.org/ns#Attribution"/>
				<cc:permits rdf:resource="http://creativecommons.org/ns#DerivativeWorks"/>
			</cc:License>
		</rdf:RDF>
	</metadata>
</svg>