<?xml version="1.0" ?>
<svg xmlns="http://www.w3.org/2000/svg" xmlns:cc="http://creativecommons.org/ns#" xmlns:dc="http://purl.org/dc/elements/1.1/" xmlns:inkscape="http://www.inkscape.org/namespaces/inkscape" xmlns:rdf="http://www.w3.org/1999/02/22-rdf-syntax-ns#" width="124.19042mm" height="124.19042mm" viewBox="0 0 124.19042 124.19042" version="1.1" id="svg151">
	<g inkscape:groupmode="layer" id="layer26" inkscape:label="hair_001" class="hair">
		<path style="display:inline;fill-opacity:1;stroke:none;stroke-width:0.265;stroke-linecap:butt;stroke-linejoin:miter;stroke-miterlimit:4;stroke-dasharray:none;stroke-opacity:1" d="m 42.256968,89.61479 c -2.024775,-10.88691 -2.835132,-1.77902 -2.149241,4.22789 -2.583953,-1.7017 -1.610564,-10.35172 -1.610564,-10.35172 0,0 -2.62525,7.02248 2.204219,16.72865 C 28.388638,94.4089 30.287006,85.56244 30.287006,85.56244 c 0,0 -1.619535,4.01551 -4.962989,4.81682 5.267452,-9.09578 3.420732,-10.39326 3.599647,-21.84491 0.171787,-10.99541 0.215642,-22.68424 1.288459,-30.3161 0.506188,-3.60095 2.190006,-8.38464 3.981629,-11.54899 1.229046,-2.17073 2.555856,-3.979078 4.484968,-5.56057 2.45915,-2.016018 5.080951,-3.89458 7.9375,-5.29167 2.505359,-1.22533 5.18456,-2.199092 7.937501,-2.64583 2.611669,-0.423812 5.29167,0 7.9375,0 2.64583,0 5.32583,-0.423813 7.9375,0 2.75294,0.446737 5.43214,1.4205 7.9375,2.64583 2.85655,1.39709 5.47835,3.27565 7.9375,5.29167 1.92911,1.58149 3.121466,3.120943 4.350511,5.29167 1.791625,3.164353 3.142697,6.974229 3.586999,10.58333 1.939668,15.756059 2.06268,31.88458 0,47.625 -0.53371,4.07262 0.53549,7.2093 -3.17501,11.90626 0,-1.32292 1.411,-11.64045 1.41099,-13.71115 -0.26458,2.0707 -2.46929,11.99141 -1.91987,14.8283 0.42805,2.028572 -0.187397,3.32092 -0.187397,3.32092 0,0 -3.137368,-1.252547 -3.960033,-1.807568 -14.9012,-10.053242 4.27597,-38.597302 -1.82704,-53.895102 -0.4247,-1.06456 -1.13705,-2.89785 -2.25751,-3.89694 -1.07432,-0.95795 -3.5054,-1.07139 -1.75457,5.59529 -3.16249,-2.41159 -4.52038,-5.78245 -4.49767,-5.7774 0,0 -1.40537,1.03064 -0.97036,5.16012 -5.19085,-2.30906 -4.89328,-6.46776 -4.89328,-6.46776 0,0 -2.4959,0.48426 -2.07386,3.38136 -2.06941,-1.86514 -2.85241,-3.45444 -2.85241,-3.45444 0,0 -2.3892,-1.10677 -2.08653,1.42623 -1.52329,-0.81725 -2.01344,-2.45422 -2.01344,-2.45422 0,0 -1.89159,0.96501 -2.39639,3.24787 -1.14075,-2.39364 -0.51192,-5.34918 -0.51192,-5.34918 0,0 -0.54098,6.95347 -6.190678,9.40559 1.384153,-3.81357 0.632034,-5.05441 0.632034,-5.05441 0,0 -1.131161,3.30915 -6.452799,5.84806 -0.209432,-4.40046 -2.159477,-5.85478 -2.159477,-5.85478 0,0 -2.739428,3.58419 -3.145552,8.64824 -1.113609,13.88587 -0.544883,19.50196 -0.06229,22.49737 0.438298,2.72048 4.889815,11.28764 2.857308,14.84454 z" id="path51665" class="hair"/>
	</g>
	<metadata>
		<rdf:RDF>
			<cc:Work>
				<dc:creator>
					<cc:Agent>
						<dc:title>yurg</dc:title>
					</cc:Agent>
				</dc:creator>
				<dc:source>https://github.com/profile-generators/avatar-parts</dc:source>
				<dc:subject>
					<rdf:Bag>
						<rdf:li>strand_of_hair</rdf:li>
						<rdf:li>long</rdf:li>
					</rdf:Bag>
				</dc:subject>
			</cc:Work>
			<cc:License rdf:about="http://creativecommons.org/licenses/by/4.0/">
				<cc:permits rdf:resource="http://creativecommons.org/ns#Reproduction"/>
				<cc:permits rdf:resource="http://creativecommons.org/ns#Distribution"/>
				<cc:requires rdf:resource="http://creativecommons.org/ns#Notice"/>
				<cc:requires rdf:resource="http://creativecommons.org/ns#Attribution"/>
				<cc:permits rdf:resource="http://creativecommons.org/ns#DerivativeWorks"/>
			</cc:License>
		</rdf:RDF>
	</metadata>
</svg>