<?xml version="1.0" ?>
<svg xmlns="http://www.w3.org/2000/svg" xmlns:cc="http://creativecommons.org/ns#" xmlns:dc="http://purl.org/dc/elements/1.1/" xmlns:inkscape="http://www.inkscape.org/namespaces/inkscape" xmlns:rdf="http://www.w3.org/1999/02/22-rdf-syntax-ns#" width="124.19042mm" height="124.19042mm" viewBox="0 0 124.19042 124.19042" version="1.1" id="svg151">
	<g inkscape:groupmode="layer" id="layer30" inkscape:label="hair_0003" class="hair">
		<path id="path1755" style="fill-opacity:1;stroke:none;stroke-width:0.264583px;stroke-linecap:butt;stroke-linejoin:miter;stroke-opacity:1" class="hair" d="m 63.482385,19.154164 c -2.439887,-0.0082 -18.673522,-0.330486 -22.546427,5.208983 -0.614299,0.878642 -1.120701,0.748242 -0.544811,1.764113 -0.605716,-0.915816 -3.348177,2.843643 -4.231129,6.853451 -1.399087,6.353763 -2.486668,13.531437 -0.812321,19.818273 3.832982,14.392095 -4.934437,22.398458 22.99063,32.805572 2.352098,0.87658 5.208233,1.09019 7.529256,0.13436 C 93.165952,74.497021 88.324259,67.781546 89.396562,53.336575 90.42924,39.425385 90.851224,30.574111 82.72671,23.389281 76.961534,18.290908 66.187782,19.16331 63.482385,19.154164 Z M 43.27137,33.532629 c 2.136714,2.124795 3.414622,2.345166 3.638901,2.459784 11.338322,5.794573 25.97014,-1.848652 36.839094,2.016932 -0.05771,4.80604 2.362676,5.29545 2.957959,11.159524 2.116178,20.846328 -11.697141,22.183841 -11.697141,22.183841 0,0 -3.334997,-3.415524 -5.512327,-4.167703 C 64.75276,65.54577 59.242781,65.456828 54.439345,66.916291 52.036478,67.646369 50.398154,69.294556 48.254709,71.218352 36.353201,63.952349 38.106436,58.327921 38.171269,48.765276 c 0.03092,-4.559858 5.024731,-7.466557 6.45323,-13.63133 0.07466,-0.322212 -0.256471,0.158422 -1.353129,-1.601317 z m 9.768062,36.897657 c 5.397772,1.396203 11.999838,0.676783 18.933725,0.458888 2.67275,2.897645 -1.513218,5.393819 -3.544485,6.537068 -1.817031,1.022673 -3.75412,-0.786286 -5.83892,-0.819071 -2.15955,-0.03396 -4.775917,1.777066 -6.661608,0.723988 -2.074179,-1.158344 -5.866862,-4.436775 -2.888712,-6.900873 z"/>
	</g>
	<metadata>
		<rdf:RDF>
			<cc:Work>
				<dc:creator>
					<cc:Agent>
						<dc:title>yurg</dc:title>
					</cc:Agent>
				</dc:creator>
				<dc:source>https://github.com/profile-generators/avatar-parts</dc:source>
				<dc:subject>
					<rdf:Bag>
						<rdf:li>bearded</rdf:li>
					</rdf:Bag>
				</dc:subject>
			</cc:Work>
			<cc:License rdf:about="http://creativecommons.org/licenses/by/4.0/">
				<cc:permits rdf:resource="http://creativecommons.org/ns#Reproduction"/>
				<cc:permits rdf:resource="http://creativecommons.org/ns#Distribution"/>
				<cc:requires rdf:resource="http://creativecommons.org/ns#Notice"/>
				<cc:requires rdf:resource="http://creativecommons.org/ns#Attribution"/>
				<cc:permits rdf:resource="http://creativecommons.org/ns#DerivativeWorks"/>
			</cc:License>
		</rdf:RDF>
	</metadata>
</svg>