<?xml version="1.0" ?>
<svg height="124.19042mm" id="svg151" version="1.1" viewBox="0 0 124.19042 124.19042" width="124.19042mm" xmlns="http://www.w3.org/2000/svg" xmlns:cc="http://creativecommons.org/ns#" xmlns:dc="http://purl.org/dc/elements/1.1/" xmlns:inkscape="http://www.inkscape.org/namespaces/inkscape" xmlns:rdf="http://www.w3.org/1999/02/22-rdf-syntax-ns#">
	<g id="layer22" inkscape:groupmode="layer" inkscape:label="bust_0000" style="display:inline;opacity:1">
		<path class="p1_fill" d="m 106.47888,101.52226 c -0.73556,3.37074 -18.191098,4.08803 -44.383749,4.08803 -26.192649,0 -43.105266,-0.13257 -44.383741,-4.37324 -1.541094,-5.111772 4.426528,-10.842305 18.575317,-15.305618 13.206308,-4.166003 16.234469,-4.65917 26.093635,-4.65917 9.659896,0 14.73859,1.162868 25.15438,4.541697 15.455608,5.013719 20.203658,9.936599 18.944158,15.708301 z" id="path11540" style="stroke-width:0.308089"/>
		<path class="flesh2_fill" d="m 62.380171,81.272486 c -7.091547,0 -10.66461,0.262898 -17.017565,1.956469 0.0035,0.396018 0.01296,0.840754 0.03307,1.37046 0,4.654227 7.484745,8.426876 16.717844,8.426876 9.233095,0 16.824811,-3.567493 16.824811,-8.221721 -0.01087,-0.664673 -0.03511,-1.163761 -0.06356,-1.580266 -5.460867,-1.410851 -9.916887,-1.951818 -16.4946,-1.951818 z" id="path1575-5" style="display:inline;fill:#000000;fill-opacity:0.298368;stroke-width:0.302882"/>
	</g>
	<metadata>
		<rdf:RDF>
			<cc:Work>
				<dc:creator>
					<cc:Agent>
						<dc:title>Xavier 'crashoz' Launey</dc:title>
					</cc:Agent>
				</dc:creator>
				<dc:source>https://github.com/profile-generators/avatar-parts</dc:source>
				<dc:subject>
					<rdf:Bag>
						<rdf:li>template</rdf:li>
						<rdf:li>man</rdf:li>
					</rdf:Bag>
				</dc:subject>
			</cc:Work>
			<cc:License rdf:about="http://creativecommons.org/licenses/by/4.0/">
				<cc:permits rdf:resource="http://creativecommons.org/ns#Reproduction"/>
				<cc:permits rdf:resource="http://creativecommons.org/ns#Distribution"/>
				<cc:requires rdf:resource="http://creativecommons.org/ns#Notice"/>
				<cc:requires rdf:resource="http://creativecommons.org/ns#Attribution"/>
				<cc:permits rdf:resource="http://creativecommons.org/ns#DerivativeWorks"/>
			</cc:License>
		</rdf:RDF>
	</metadata>
</svg>