<?xml version="1.0" ?>
<svg xmlns="http://www.w3.org/2000/svg" xmlns:cc="http://creativecommons.org/ns#" xmlns:dc="http://purl.org/dc/elements/1.1/" xmlns:inkscape="http://www.inkscape.org/namespaces/inkscape" xmlns:rdf="http://www.w3.org/1999/02/22-rdf-syntax-ns#" width="124.19042mm" height="124.19042mm" viewBox="0 0 124.19042 124.19042" version="1.1" id="svg151">
	<g inkscape:groupmode="layer" id="layer23" inkscape:label="hat_0003" class="hat">
		<g id="g27351" transform="matrix(1.1577881,0,0,1.0799965,-81.395738,-0.06226737)" style="display:inline;stroke:none">
			<path style="stroke:none;stroke-width:0.05;stroke-linecap:butt;stroke-linejoin:miter;stroke-miterlimit:4;stroke-dasharray:none;stroke-opacity:1" d="m 105.95499,18.892868 c 2.62968,-3.660304 10.24813,-8.29059 13.17608,-9.0081435 4.73002,-1.159185 9.78346,0.1227925 14.35422,1.8035395 7.72313,2.839931 9.31783,5.941435 12.08488,10.487092 0.51929,0.853075 0.87134,2.251691 1.31461,3.746438 0.38267,1.290422 0.56611,2.12164 0.91501,6.303935 -5.10649,-1.330435 -3.42513,-2.353568 -10.77943,-2.520482 0.0327,-0.380054 0.10102,-0.429946 -0.0678,-1.213435 -3.92029,-1.724944 -4.69873,-2.341471 -11.015,-5.061263 -3.77598,-1.625942 -8.66405,-2.300673 -11.30489,-2.754786 -2.32488,-0.399777 -4.58874,-0.68392 -8.67772,-1.721649 z" id="path948" class="p4"/>
			<path style="display:inline;stroke:none;stroke-width:0.05;stroke-linecap:butt;stroke-linejoin:miter;stroke-miterlimit:4;stroke-dasharray:none;stroke-opacity:1" d="m 101.62107,29.803581 c 0,0 -2.638876,-0.110659 -4.342104,-0.14726 -2.68875,-0.05778 -6.945917,1.643197 -8.066992,-0.13445 -2.5297,-4.01125 2.583173,-11.683505 7.307828,-12.092333 2.953676,-0.227807 3.941098,0.263072 10.408598,1.738624 4.28874,0.978472 7.23959,1.381037 12.55111,2.322619 4.46111,0.924788 6.2334,1.660022 10.62372,3.767579 4.6515,2.232933 4.38925,2.134699 6.8106,3.226798 0.22321,0.743316 0.11019,0.777202 0.10084,1.251321 -6.3816,-0.687245 -10.28512,0.575049 -12.44238,0.424028 -4.67466,-0.327255 -11.469,-3.991181 -16.44348,-7.19061 -1.49732,0.45256 -3.16333,1.666366 -4.19769,2.894072 -0.92364,1.096296 -2.31005,3.939612 -2.31005,3.939612 z" id="path948-5" class="p3"/>
			<path style="display:inline;fill:#000000;fill-opacity:0.5;stroke:none;stroke-width:0.05;stroke-linecap:butt;stroke-linejoin:miter;stroke-miterlimit:4;stroke-dasharray:none;stroke-opacity:1" d="m 89.24375,29.577779 c 0.05074,0.24676 0.672279,0.699803 1.57214,0.747944 1.680298,0.08989 4.708215,-0.673548 6.155866,-0.678272 1.774343,-0.0058 2.300925,0.07998 4.665204,0.169731 2.10171,-0.153596 3.29618,-2.625545 6.34625,-2.766239 3.63045,-0.167468 10.27553,2.138916 13.06184,3.146201 5.12718,1.853539 7.26672,0.333925 10.08374,0.134449 1.38767,-0.09826 3.65509,-0.359763 6.00935,-0.301585 0.90822,0.02244 1.95011,0.04312 2.84128,0.0999 3.44844,0.219721 3.65774,1.186178 7.82733,2.121369 -1.94157,-0.487318 -3.39233,-1.22155 -4.73305,-1.777552 -0.85567,-0.354845 -3.12344,-0.659055 -6.04015,-0.751028 -6.38161,-0.687245 -9.65226,0.669642 -12.4928,0.440834 -6.07753,-0.489549 -13.92892,-5.482505 -16.90806,-7.558725 -2.93714,-2.046947 -6.35485,-3.30965 -8.873388,-3.9207 -3.055693,-0.741374 -5.443928,0.723641 -6.957103,2.235997 -2.622042,3.020864 -3.388844,7.555755 -2.558449,8.657678 z" id="path948-6"/>
			<path style="fill:#000000;fill-opacity:0.25;stroke:none;stroke-width:0.05;stroke-linecap:butt;stroke-linejoin:miter;stroke-miterlimit:4;stroke-dasharray:none;stroke-opacity:1" d="m 89.128522,29.424295 c -0.541249,-1.536311 0.06313,-3.872027 0.907761,-5.718224 0.82978,-1.813748 1.740752,-2.876831 2.762594,-3.665056 1.692754,-1.305751 3.920985,-1.885249 6.430879,-1.240839 2.991204,0.767986 5.843534,2.15073 8.437494,3.826584 2.63,1.699136 5.26859,3.391628 8.02157,4.68222 2.96137,1.388281 6.39609,2.76127 9.37632,2.875878 0.84076,0.03233 4.91685,-0.590651 7.39869,-0.647242 1.51449,-0.03453 3.24019,0.05684 4.55642,0.171892 0.0717,-0.420071 -0.0136,-0.865605 -0.0746,-1.237089 -1.83853,-0.0018 -3.68775,0.05987 -5.52925,0.151257 -2.33923,0.116083 -4.67431,0.7001 -7.0082,0.504188 -1.67215,-0.140363 -3.31549,-0.614671 -4.89062,-1.193242 -2.18237,-0.801623 -4.20398,-1.994649 -6.23511,-3.125959 -2.24117,-1.248297 -4.31259,-2.78641 -6.55443,-4.033499 -1.52162,-0.846443 -3.04808,-1.708194 -4.67214,-2.336065 -1.21585,-0.470056 -2.461146,-1.04221 -3.764593,-1.058793 -2.078251,-0.02644 -3.459107,-0.01993 -5.941005,2.109181 -1.952003,1.674537 -3.500226,4.339447 -3.770962,6.889116 -0.10671,1.004951 -4.98e-4,2.074764 0.549152,3.045692 z" id="path20522"/>
		</g>
	</g>
	<metadata>
		<rdf:RDF>
			<cc:Work>
				<dc:creator>
					<cc:Agent>
						<dc:title>yurg</dc:title>
					</cc:Agent>
				</dc:creator>
				<dc:source>https://github.com/profile-generators/avatar-parts</dc:source>
				<dc:subject>
					<rdf:Bag>
						<rdf:li>cap</rdf:li>
					</rdf:Bag>
				</dc:subject>
			</cc:Work>
			<cc:License rdf:about="http://creativecommons.org/licenses/by/4.0/">
				<cc:permits rdf:resource="http://creativecommons.org/ns#Reproduction"/>
				<cc:permits rdf:resource="http://creativecommons.org/ns#Distribution"/>
				<cc:requires rdf:resource="http://creativecommons.org/ns#Notice"/>
				<cc:requires rdf:resource="http://creativecommons.org/ns#Attribution"/>
				<cc:permits rdf:resource="http://creativecommons.org/ns#DerivativeWorks"/>
			</cc:License>
		</rdf:RDF>
	</metadata>
</svg>