<?xml version="1.0" ?>
<svg xmlns="http://www.w3.org/2000/svg" xmlns:cc="http://creativecommons.org/ns#" xmlns:dc="http://purl.org/dc/elements/1.1/" xmlns:inkscape="http://www.inkscape.org/namespaces/inkscape" xmlns:rdf="http://www.w3.org/1999/02/22-rdf-syntax-ns#" width="124.19042mm" height="124.19042mm" viewBox="0 0 124.19042 124.19042" version="1.1" id="svg151">
	<g inkscape:groupmode="layer" id="layer26" inkscape:label="hat_0001" class="hat">
		<path style="display:inline;fill-opacity:1;stroke:none;stroke-width:0.283959px;stroke-linecap:butt;stroke-linejoin:miter;stroke-opacity:1" d="m 10.043105,36.211972 c -0.9693837,-0.2649 -0.4437697,2.38417 0.540906,2.60255 51.77028,11.48135 58.99967,-1.773395 76.422225,-10.258951 0.865682,1.60816 1.150993,2.636677 1.585474,3.479169 5.549366,-4.081156 12.28472,-6.159572 21.38765,-9.441437 0.98297,-0.354389 3.04746,-1.031065 0.36854,-1.207322 -4.86211,-0.319898 -8.25416,1.851091 -13.283809,1.221171 C 81.975161,20.717432 71.190897,2.4680366 56.187275,4.8136976 41.18365,7.1593579 38.425161,27.526022 25.04672,33.866312 c -4.45948,2.11344 -6.356026,4.70868 -15.003615,2.34566 z" id="path34408" class="p4"/>
		<path style="fill:#000000;fill-opacity:0.337398;stroke:none;stroke-width:0.264583px;stroke-linecap:butt;stroke-linejoin:miter;stroke-opacity:1" d="m 9.8145413,36.155748 c 5.5269397,1.607662 8.3915837,0.798544 8.3915837,0.798544 0,0 -2.699044,0.690859 -3.910001,0.881382 -2.211926,-0.43505 -3.507708,-1.023611 -4.4815827,-1.679926 z" id="path3494-0"/>
		<path style="fill:#000000;fill-opacity:0.04;stroke:none;stroke-width:0.264583px;stroke-linecap:butt;stroke-linejoin:miter;stroke-opacity:1" d="m 58.665813,4.6365721 c 8.219047,0.082994 13.74286,4.6656972 21.631568,10.1196289 7.165393,4.953861 2.621654,2.675694 11.695145,6.635928 -0.484315,0.700631 -2.280242,1.735995 -4.99739,2.825056 -3.529532,1.414673 -6.561186,1.849327 -9.417666,1.402458 C 63.335535,23.391628 62.059785,6.234036 58.665813,4.6365721 Z" id="path3494-0-9"/>
		<path style="fill-opacity:1;stroke:none;stroke-width:0.269619px;stroke-linecap:butt;stroke-linejoin:miter;stroke-opacity:1" d="m 87.021356,28.572873 c 5.252472,-2.859137 19.524584,-5.627994 24.604914,-6.891074 0.21248,0.37893 -1.34589,0.772735 -3.60537,1.603486 -3.74522,1.520414 -13.024825,4.096766 -19.43699,8.72412 -0.741978,-1.646693 -0.95548,-2.112016 -1.562554,-3.436532 z" id="path5633" class="p3"/>
		<path style="fill-opacity:1;stroke:none;stroke-width:0.264583px;stroke-linecap:butt;stroke-linejoin:miter;stroke-opacity:1" d="M 9.8645563,36.117246 C 11.602534,37.607141 32.224572,42.773783 50.199522,42.97419 37.970098,43.169743 33.70405,43.912647 10.3942,38.806244 9.4916833,38.608533 9.1654353,36.604947 9.8645563,36.117246 Z" id="path1842" class="p3"/>
		<path style="fill:#000000;fill-opacity:0.5;stroke:none;stroke-width:0.05;stroke-linecap:butt;stroke-linejoin:miter;stroke-miterlimit:4;stroke-dasharray:none;stroke-opacity:1" d="m 66.919274,39.382163 c 9.600441,-0.144269 17.550221,-1.94351 22.36879,-4.548592 -0.311735,-1.609225 -0.396994,-1.710162 -0.68989,-2.853102 4.209002,-3.306708 14.051036,-6.847669 19.435076,-8.718024 2.23899,-0.777802 3.68397,-1.25575 3.60021,-1.560161 -3.76929,0.672908 -17.168524,3.378898 -24.613845,6.887201 -6.900339,3.251502 -14.244895,8.664509 -20.100341,10.792678 z" id="path10262"/>
	</g>
	<metadata>
		<rdf:RDF>
			<cc:Work>
				<dc:creator>
					<cc:Agent>
						<dc:title>yurg</dc:title>
					</cc:Agent>
				</dc:creator>
				<dc:source>https://github.com/profile-generators/avatar-parts</dc:source>
				<dc:subject>
					<rdf:Bag>
						<rdf:li>sun</rdf:li>
					</rdf:Bag>
				</dc:subject>
			</cc:Work>
			<cc:License rdf:about="http://creativecommons.org/licenses/by/4.0/">
				<cc:permits rdf:resource="http://creativecommons.org/ns#Reproduction"/>
				<cc:permits rdf:resource="http://creativecommons.org/ns#Distribution"/>
				<cc:requires rdf:resource="http://creativecommons.org/ns#Notice"/>
				<cc:requires rdf:resource="http://creativecommons.org/ns#Attribution"/>
				<cc:permits rdf:resource="http://creativecommons.org/ns#DerivativeWorks"/>
			</cc:License>
		</rdf:RDF>
	</metadata>
</svg>