<?xml version="1.0" ?>
<svg xmlns="http://www.w3.org/2000/svg" xmlns:cc="http://creativecommons.org/ns#" xmlns:dc="http://purl.org/dc/elements/1.1/" xmlns:inkscape="http://www.inkscape.org/namespaces/inkscape" xmlns:rdf="http://www.w3.org/1999/02/22-rdf-syntax-ns#" width="124.19042mm" height="124.19042mm" viewBox="0 0 124.19042 124.19042" version="1.1" id="svg151">
	<g inkscape:groupmode="layer" id="g29656" inkscape:label="eyes_001" style="display:inline;opacity:1" class="eyes">
		<path id="path29636" style="fill:#ffffff" d="m 58.051859,51.617816 c 0.177448,2.007941 -2.742955,4.361203 -6.771017,4.316319 -4.26599,-0.04753 -6.533343,-1.768594 -7.864329,-4.316319 -1.091658,-2.089614 2.234178,-4.643504 7.388976,-4.649066 3.044044,-0.0033 7.055193,2.485772 7.24637,4.649066 z"/>
		<circle id="circle29638" cx="50.949532" cy="51.23785" r="4.1355634" class="eye"/>
		<ellipse style="fill:#000000" id="ellipse29640" cx="50.949532" cy="51.23785" rx="2.0522294" ry="2.1312411"/>
		<path id="path29642" d="m 58.051859,51.617816 c -0.44051,-1.65227 -3.170772,-3.719783 -7.198834,-3.764667 -4.26599,-0.04753 -7.103765,0.845843 -7.436512,3.764667 -1.091658,-2.089614 2.234178,-4.643504 7.388976,-4.649066 3.044044,-0.0033 7.055193,1.725209 7.24637,4.649066 z" class="flesh2" style="fill:#000000;fill-opacity:1"/>
		<path id="path29644" style="fill:#ffffff" d="m 66.061501,51.783875 c -0.177448,2.007941 2.742955,4.361203 6.771017,4.316319 4.26599,-0.04753 6.533343,-1.768594 7.864329,-4.316319 1.091658,-2.089614 -2.234178,-4.643504 -7.388976,-4.649066 -3.044044,-0.0033 -7.055193,2.485772 -7.24637,4.649066 z"/>
		<circle id="circle29646" cx="-73.163826" cy="51.403908" r="4.1355634" class="eye" transform="scale(-1,1)"/>
		<ellipse style="fill:#000000" id="ellipse29648" cx="-73.163826" cy="51.403908" rx="2.0522294" ry="2.1312411" transform="scale(-1,1)"/>
		<path id="path29650" d="m 66.061501,51.783875 c 0.44051,-1.65227 3.170772,-3.719783 7.198834,-3.764667 4.26599,-0.04753 7.103765,0.845843 7.436512,3.764667 1.091658,-2.089614 -2.234178,-4.643504 -7.388976,-4.649066 -3.044044,-0.0033 -7.055193,1.725209 -7.24637,4.649066 z" class="flesh2" style="fill:#000000;fill-opacity:1"/>
		<ellipse style="fill:#ffffff;fill-opacity:0.5" id="ellipse29652" cx="49.12764" cy="50.089161" rx="0.78433096" ry="0.8318662"/>
		<ellipse style="fill:#ffffff;fill-opacity:0.5" id="ellipse29654" cx="71.350349" cy="50.11293" rx="0.92693657" ry="0.90316904"/>
	</g>
	<metadata>
		<rdf:RDF>
			<cc:Work>
				<dc:creator>
					<cc:Agent>
						<dc:title>yurg</dc:title>
					</cc:Agent>
				</dc:creator>
				<dc:source>https://github.com/profile-generators/avatar-parts</dc:source>
				<dc:subject>
					<rdf:Bag>
						<rdf:li>makeup</rdf:li>
					</rdf:Bag>
				</dc:subject>
			</cc:Work>
			<cc:License rdf:about="http://creativecommons.org/licenses/by/4.0/">
				<cc:permits rdf:resource="http://creativecommons.org/ns#Reproduction"/>
				<cc:permits rdf:resource="http://creativecommons.org/ns#Distribution"/>
				<cc:requires rdf:resource="http://creativecommons.org/ns#Notice"/>
				<cc:requires rdf:resource="http://creativecommons.org/ns#Attribution"/>
				<cc:permits rdf:resource="http://creativecommons.org/ns#DerivativeWorks"/>
			</cc:License>
		</rdf:RDF>
	</metadata>
</svg>