<?xml version="1.0" ?>
<svg xmlns="http://www.w3.org/2000/svg" xmlns:cc="http://creativecommons.org/ns#" xmlns:dc="http://purl.org/dc/elements/1.1/" xmlns:inkscape="http://www.inkscape.org/namespaces/inkscape" xmlns:rdf="http://www.w3.org/1999/02/22-rdf-syntax-ns#" width="124.19042mm" height="124.19042mm" viewBox="0 0 124.19042 124.19042" version="1.1" id="svg151">
	<g inkscape:groupmode="layer" id="g11700" inkscape:label="backhair_001" style="display:inline" class="backhair">
		<path style="fill-opacity:1" d="m 34.01582,70.317288 c 3.158485,-3.314275 3.092347,-7.798094 3.092347,-7.798094 0,0 -0.384504,-16.121225 2.554549,-23.394278 1.699492,-4.205604 4.26732,-8.750471 8.335891,-10.75599 9.004498,-4.438584 21.172902,-4.693965 30.116774,-0.13445 4.376946,2.231332 7.056853,7.303379 8.604793,11.966037 2.400893,7.231896 -0.04882,15.249895 0.403349,22.856481 0.521978,8.780921 -3.899048,10.755992 -3.899048,10.755992 2.060881,-4.906135 0.806702,-4.840196 0.806702,-4.840196 0,0 -1.552395,1.491335 -2.269251,7.052442 -3.054414,0.186278 -4.562646,-10.67103 -4.562646,-10.67103 0,0 0.798049,8.250932 3.487108,12.663739 -3.000602,0.435488 -8.309766,-7.777947 -8.309766,-7.777947 L 50.646089,69.912135 c 0,0 3.237394,4.422308 -6.508912,8.253363 2.363932,-2.034414 -1.037983,-3.445581 -1.037983,-3.445581 0,0 0.776209,1.023855 -3.838679,1.868324 4.213717,-9.252321 0.733029,-10.809332 2.150049,-8.825502 0,0 -4.954456,4.424613 -7.394744,2.554549 z" id="path11735" class="hair2"/>
	</g>
	<metadata>
		<rdf:RDF>
			<cc:Work>
				<dc:creator>
					<cc:Agent>
						<dc:title>yurg</dc:title>
					</cc:Agent>
				</dc:creator>
				<dc:source>https://github.com/profile-generators/avatar-parts</dc:source>
				<dc:subject>
					<rdf:Bag>
						<rdf:li>medium_long</rdf:li>
						<rdf:li>dark</rdf:li>
						<rdf:li>hair</rdf:li>
					</rdf:Bag>
				</dc:subject>
			</cc:Work>
			<cc:License rdf:about="http://creativecommons.org/licenses/by/4.0/">
				<cc:permits rdf:resource="http://creativecommons.org/ns#Reproduction"/>
				<cc:permits rdf:resource="http://creativecommons.org/ns#Distribution"/>
				<cc:requires rdf:resource="http://creativecommons.org/ns#Notice"/>
				<cc:requires rdf:resource="http://creativecommons.org/ns#Attribution"/>
				<cc:permits rdf:resource="http://creativecommons.org/ns#DerivativeWorks"/>
			</cc:License>
		</rdf:RDF>
	</metadata>
</svg>