<?xml version="1.0" ?>
<svg xmlns="http://www.w3.org/2000/svg" xmlns:cc="http://creativecommons.org/ns#" xmlns:dc="http://purl.org/dc/elements/1.1/" xmlns:inkscape="http://www.inkscape.org/namespaces/inkscape" xmlns:rdf="http://www.w3.org/1999/02/22-rdf-syntax-ns#" width="124.19042mm" height="124.19042mm" viewBox="0 0 124.19042 124.19042" version="1.1" id="svg151">
	<g inkscape:groupmode="layer" id="layer34" inkscape:label="backhair_0002" class="backhair">
		<g id="g1844" transform="matrix(1.0277538,0,0,1,-2.611306,0)">
			<g id="g1474" transform="matrix(0.98056119,0,0,1,2.8667216,0)">
				<path style="display:inline;fill-opacity:1;stroke:none;stroke-width:0.265;stroke-linecap:butt;stroke-linejoin:miter;stroke-miterlimit:4;stroke-dasharray:none;stroke-opacity:1" d="m 33.098299,61.155069 c 0,0 28.220449,-1.695358 55.138559,-1.235848 -6.6397,10.4316 4.93619,13.31944 4.70366,31.52201 0,0 -5.98427,-5.85966 -2.57007,8.614389 -6.16699,-5.235809 -7.81024,-9.730989 -8.26829,-11.484569 0,0 -2.74053,2.2376 -1.89224,11.203124 -10.12237,-5.013194 -9.54209,-14.042164 -9.54209,-14.042164 0,0 -3.66093,3.15821 -2.83794,9.4481 -4.03541,-4.0494 -6.76851,-9.60676 -6.76851,-9.60676 0,0 -3.69408,3.91757 -3.10386,9.41698 -2.97048,-1.77433 -4.89125,-11.64885 -4.89125,-11.64885 0,0 -4.935764,6.65993 -3.26652,17.058869 -5.186806,-4.789959 -6.123554,-13.300319 -6.123554,-13.300319 0.0149,-0.0298 2.499813,6.8546 -9.101567,13.346899 7.063986,-7.656129 2.729016,-12.096029 2.729016,-12.096029 0,0 1.286057,2.68518 -10.048133,6.64517 5.215493,-8.15801 5.034144,-10.74688 5.034144,-10.74688 0,0 -1.608542,10.90168 -7.3153,10.1895 13.141374,-19.61535 8.123945,-33.283622 8.123945,-33.283622 z" id="path73125" inkscape:transform-center-x="57.767243" inkscape:transform-center-y="-44.257401" class="hair"/>
				<path style="display:inline;fill:#000000;fill-opacity:0.146341;stroke:none;stroke-width:0.265;stroke-linecap:butt;stroke-linejoin:miter;stroke-miterlimit:4;stroke-dasharray:none;stroke-opacity:1" d="m 32.914297,61.111852 c 0,0 28.490278,-1.563067 55.408393,-1.103557 -6.63971,10.4316 4.93618,13.31944 4.70366,31.52201 0,0 -5.98427,-5.85966 -2.57007,8.614385 -6.16699,-5.235805 -7.81024,-9.730985 -8.2683,-11.484565 0,0 -2.74053,2.2376 -1.89224,11.203124 -10.122365,-5.013194 -9.542085,-14.042164 -9.542085,-14.042164 0,0 -3.66093,3.15821 -2.83794,9.4481 -4.03541,-4.0494 -6.76851,-9.60676 -6.76851,-9.60676 0,0 -3.69408,3.91757 -3.10386,9.41698 -2.97048,-1.77433 -4.89125,-11.64885 -4.89125,-11.64885 0,0 -4.935764,6.65993 -3.26652,17.058865 -5.186806,-4.789955 -6.123554,-13.300315 -6.123554,-13.300315 0.0149,-0.0298 2.499813,6.8546 -9.101567,13.346895 7.063986,-7.656125 2.729016,-12.096025 2.729016,-12.096025 0,0 1.286057,2.68518 -10.048133,6.64517 5.215493,-8.15801 5.034144,-10.74688 5.034144,-10.74688 0,0 -1.608542,10.90168 -7.3153,10.1895 13.141374,-19.61535 7.854116,-33.415913 7.854116,-33.415913 z" id="path73125-4" inkscape:transform-center-x="57.767243" inkscape:transform-center-y="-44.257401" class="hair"/>
			</g>
		</g>
	</g>
	<metadata>
		<rdf:RDF>
			<cc:Work>
				<dc:creator>
					<cc:Agent>
						<dc:title>yurg</dc:title>
					</cc:Agent>
				</dc:creator>
				<dc:source>https://github.com/profile-generators/avatar-parts</dc:source>
				<dc:subject>
					<rdf:Bag>
						<rdf:li>long</rdf:li>
					</rdf:Bag>
				</dc:subject>
			</cc:Work>
			<cc:License rdf:about="http://creativecommons.org/licenses/by/4.0/">
				<cc:permits rdf:resource="http://creativecommons.org/ns#Reproduction"/>
				<cc:permits rdf:resource="http://creativecommons.org/ns#Distribution"/>
				<cc:requires rdf:resource="http://creativecommons.org/ns#Notice"/>
				<cc:requires rdf:resource="http://creativecommons.org/ns#Attribution"/>
				<cc:permits rdf:resource="http://creativecommons.org/ns#DerivativeWorks"/>
			</cc:License>
		</rdf:RDF>
	</metadata>
</svg>